<svg width="32" height="32" viewBox="0 0 32 32" fill="none" xmlns="http://www.w3.org/2000/svg">
<path fill-rule="evenodd" clip-rule="evenodd" d="M17.3333 7C18.0182 7 18.3607 7 18.5969 7.14044C18.983 7.36999 19.1687 7.82915 19.0508 8.26258C18.9786 8.52775 18.6009 8.89311 17.8454 9.62384C16.0908 11.3208 15 13.6997 15 16.3333C15 18.967 16.0908 21.3459 17.8454 23.0428C18.6009 23.7736 18.9786 24.1389 19.0508 24.4041C19.1687 24.8375 18.983 25.2967 18.5969 25.5262C18.3607 25.6667 18.0182 25.6667 17.3333 25.6667V25.6667C12.1787 25.6667 8 21.488 8 16.3333C8 11.1787 12.1787 7 17.3333 7V7Z" fill="white"/>
</svg>
