<?xml version="1.0" encoding="UTF-8" standalone="no"?>
<!-- Generator: Adobe Illustrator 17.1.0, SVG Export Plug-In . SVG Version: 6.00 Build 0)  -->

<svg
   xmlns:dc="http://purl.org/dc/elements/1.1/"
   xmlns:cc="http://creativecommons.org/ns#"
   xmlns:rdf="http://www.w3.org/1999/02/22-rdf-syntax-ns#"
   xmlns:svg="http://www.w3.org/2000/svg"
   xmlns="http://www.w3.org/2000/svg"
   xmlns:sodipodi="http://sodipodi.sourceforge.net/DTD/sodipodi-0.dtd"
   xmlns:inkscape="http://www.inkscape.org/namespaces/inkscape"
   version="1.1"
   id="Layer_1"
   x="0px"
   y="0px"
   viewBox="315 0 212.47532 212.47532"
   enable-background="new 315 0 512 512"
   xml:space="preserve"
   inkscape:version="0.91 r13725"
   sodipodi:docname="ti_logo.svg"
   width="212.47533"
   height="212.47533"><metadata
     id="metadata3348"><rdf:RDF><cc:Work
         rdf:about=""><dc:format>image/svg+xml</dc:format><dc:type
           rdf:resource="http://purl.org/dc/dcmitype/StillImage" /><dc:title></dc:title></cc:Work></rdf:RDF></metadata><defs
     id="defs3346" /><sodipodi:namedview
     pagecolor="#000000"
     bordercolor="#000000"
     borderopacity="0"
     objecttolerance="10"
     gridtolerance="10"
     guidetolerance="10"
     inkscape:pageopacity="0"
     inkscape:pageshadow="2"
     inkscape:window-width="1920"
     inkscape:window-height="1028"
     id="namedview3344"
     showgrid="false"
     fit-margin-top="0"
     fit-margin-left="0"
     fit-margin-right="0"
     fit-margin-bottom="0"
     inkscape:zoom="1.0683594"
     inkscape:cx="128.41063"
     inkscape:cy="-198.00646"
     inkscape:window-x="1912"
     inkscape:window-y="98"
     inkscape:window-maximized="1"
     inkscape:current-layer="g10" /><g
     transform="matrix(1.9099836,0,0,-1.9099836,269.50061,131.21795)"
     id="g10"><rect
       style="fill:#ff0000;fill-opacity:1;stroke:none;stroke-width:3;stroke-miterlimit:4;stroke-dasharray:none;stroke-opacity:1"
       id="rect4737"
       width="111.24458"
       height="111.24458"
       x="23.821873"
       y="-68.701088"
       transform="scale(1,-1)"
       ry="11.750953" /><g
       transform="matrix(0.22021599,0,0,0.22021599,-27.365649,-87.271069)"
       id="g12"><g
         id="g14"><g
           clip-path="url(#clipPath18)"
           id="g16"><path
             id="TILogo"
             class="logo"
             style="fill:#ffffff;fill-opacity:1;fill-rule:nonzero;stroke:none"
             d="m 586.66,668.449 -43.316,0 -8.285,-41.808 43.308,0 8.293,41.808 z m -49.211,-249.347 37.578,189.464 -43.308,0 -37.571,-189.464 43.301,0 z m 145.809,133.71 0,55.754 -89.395,0 -11.265,-56.25 32.16,0 -10.309,-51.695 -32.168,0 -11.148,-56.031 c -0.86,-3.809 -1.488,-6.543 -1.903,-9.18 -2.625,-17.148 4.868,-16.308 28.934,-16.308 l -11,-55.086 -42.086,0 c -39.785,0 -72.148,0.398 -63.734,41.074 1.316,6.355 2.918,12.508 4.07,18.582 l 15.031,76.949 -30.918,0 10.332,51.695 30.907,0 11.277,56.25 -28.938,0 0,84.774 -107.035,0 0,-172.488 -128.05,0 c 3.164,-44.727 42.757,-51.235 57.171,-83.008 9.93,-21.895 18.625,-60.383 47.657,-60.735 22.234,-0.273 22.234,28.75 50.843,28.75 28.59,0 41.289,-54.297 66.707,-99.023 19.067,-35.125 50.723,-58.672 79.422,-60.664 23.543,-1.629 34.942,6.367 34.942,6.367 -6.348,12.793 -9.532,25.559 -9.532,44.707 0,28.77 22.243,57.473 47.657,76.641 34.941,25.597 73.07,35.195 85.781,38.34 l 0,89.445 c 0,0 -25.41,13.605 -25.41,51.14"
             inkscape:connector-curvature="0" /></g></g></g></g></svg>