<?xml version="1.0" encoding="UTF-8" standalone="no"?>
<!-- Generator: Adobe Illustrator 17.1.0, SVG Export Plug-In . SVG Version: 6.00 Build 0)  -->

<svg
   xmlns:dc="http://purl.org/dc/elements/1.1/"
   xmlns:cc="http://creativecommons.org/ns#"
   xmlns:rdf="http://www.w3.org/1999/02/22-rdf-syntax-ns#"
   xmlns:svg="http://www.w3.org/2000/svg"
   xmlns="http://www.w3.org/2000/svg"
   xmlns:sodipodi="http://sodipodi.sourceforge.net/DTD/sodipodi-0.dtd"
   xmlns:inkscape="http://www.inkscape.org/namespaces/inkscape"
   version="1.1"
   id="Layer_1"
   x="0px"
   y="0px"
   viewBox="315 0 224.26687 52.466277"
   enable-background="new 315 0 512 512"
   xml:space="preserve"
   inkscape:version="0.91 r13725"
   sodipodi:docname="ti_stacked_banner.svg"
   width="224.26688"
   height="52.466278"><metadata
     id="metadata3348"><rdf:RDF><cc:Work
         rdf:about=""><dc:format>image/svg+xml</dc:format><dc:type
           rdf:resource="http://purl.org/dc/dcmitype/StillImage" /><dc:title></dc:title></cc:Work></rdf:RDF></metadata><defs
     id="defs3346" /><sodipodi:namedview
     pagecolor="#ff00ff"
     bordercolor="#000000"
     borderopacity="0"
     objecttolerance="10"
     gridtolerance="10"
     guidetolerance="10"
     inkscape:pageopacity="0"
     inkscape:pageshadow="2"
     inkscape:window-width="742"
     inkscape:window-height="406"
     id="namedview3344"
     showgrid="false"
     fit-margin-top="0"
     fit-margin-left="0"
     fit-margin-right="0"
     fit-margin-bottom="0"
     inkscape:zoom="1.0683594"
     inkscape:cx="141.51484"
     inkscape:cy="78.420643"
     inkscape:window-x="2466"
     inkscape:window-y="151"
     inkscape:window-maximized="1"
     inkscape:current-layer="Layer_1" /><g
     transform="matrix(0.78936614,0,0,-0.78936614,287.93402,58.47397)"
     id="g10"><g
       transform="scale(0.1,0.1)"
       id="g12"><g
         id="g14"><g
           clip-path="url(#clipPath18)"
           id="g16"><path
             id="Texas"
             class="name"
             style="fill:#000000;fill-opacity:1;fill-rule:nonzero;stroke:none"
             d="m 1864.4638,387.7196 c 0,2.922 2.92,9.101 6.55,9.101 8.37,-3.992 22.58,-12.371 48.8,-12.371 44.06,0 75.02,21.844 75.02,58.993 0,34.953 -19.32,49.16 -56.45,57.535 l -33.87,7.644 c -19.3,4.371 -25.49,9.836 -25.49,21.848 0,13.848 10.92,22.945 34.96,22.945 26.94,0 48.07,-12.754 63.36,-30.226 l 4.74,3.277 -13.85,48.07 -8.73,0 c 0,-4.004 -1.81,-8.379 -5.46,-8.379 -8.02,4.375 -20.4,11.286 -41.51,11.286 -37.88,0 -67.37,-19.665 -67.37,-55.348 0,-27.313 16.38,-44.426 52.07,-52.43 l 32.05,-7.297 c 21.48,-4.726 29.11,-12.363 29.11,-25.847 0,-18.567 -14.91,-28.41 -39.31,-28.41 -34.24,0 -56.08,17.851 -73.92,38.605 l -4.74,-3.273 14.92,-55.723 9.12,0 z m -129.63,154.414 29.91,-81.57 -61,0 31.09,81.57 z m -243.95,4.727 46.62,-65.926 -44.09,-62.629 c -13.46,-18.926 -21.48,-21.485 -33.86,-24.395 l 0,-6.191 70.65,0 0,6.191 c -13.48,2.559 -19.31,7.657 -10.19,21.856 l 30.87,48.261 32.49,-46.804 c 12.01,-17.121 -0.74,-21.848 -11.66,-23.313 l 0,-6.191 127.8,0 0,6.191 c -12.75,2.188 -18.58,6.563 -12.02,24.043 l 8.33,21.848 76.52,0 8.01,-21.848 c 5.1,-14.199 3.27,-21.855 -11.66,-24.043 l 0,-6.191 78.66,0 0,6.191 c -9.1,2.91 -17.48,10.567 -21.48,21.125 l -60.82,159.5 -41.51,0 -58.27,-148.574 c -6.21,-15.43 -11.86,-22.695 -18.02,-26.894 -4.82,3.046 -9.24,7.683 -15.1,15.968 l -51.22,72.606 41.4,58.484 c 10.92,15.656 20.02,18.938 30.94,22.215 l 0,6.195 -66.63,0 0,-6.195 c 13.83,-1.09 17.84,-8.734 9.83,-20.758 l -28.89,-42.797 -26.09,39.164 c -10.93,16.02 -2.92,22.578 9.1,24.391 l 0,6.195 -88.48,0 0,-6.195 c 12.36,-3.277 18.56,-6.914 28.77,-21.48 z m -196.27,21.48 c 12,-3.277 18.2,-6.184 18.2,-24.391 l 0,-125.644 c 0,-18.563 -6.2,-21.485 -18.2,-24.395 l 0,-6.191 152.57,0 17.48,43.699 -4.75,3.274 c -15.29,-20.02 -31.31,-24.766 -52.43,-24.766 l -39.33,0 c -12.38,0 -15.29,0.383 -15.29,12.402 l 0,52.434 47.7,0 c 18.58,0 21.48,-4.375 24.41,-15.293 l 7.27,0 0,52.43 -7.27,0 c -2.93,-10.922 -5.83,-15.661 -24.41,-15.661 l -47.7,0 0,44.059 c 0,9.102 2.91,12.027 15.29,12.027 0,0 30.6,0 33.51,0 21.48,0 32.77,-5.464 49.16,-22.949 l 4.73,3.281 -15.29,41.879 -145.65,0 0,-6.195 z m -92.139,25.125 0,-175.16 c 0,-18.563 -9.453,-21.485 -18.566,-24.395 l 0,-6.191 80.845,0 0,6.191 c -9.1,2.91 -18.584,5.832 -18.584,24.395 l 0,175.16 c 0,10.562 3.284,13.113 17.124,13.113 37.87,0 56.44,-0.722 69.91,-21.847 l 4.73,2.906 -15.28,44.789 -197.015,0 -15.293,-44.789 4.738,-2.906 c 16.391,20.746 29.129,21.847 70.278,21.847 13.832,0 17.113,-2.551 17.113,-13.113"
             inkscape:connector-curvature="0" /><path
             id="Instruments"
             class="name"
             style="fill:#000000;fill-opacity:1;fill-rule:nonzero;stroke:none"
             d="m 3127.5332,192.63979 -33.86,7.652 c -19.3,4.371 -25.49,9.824 -25.49,21.84 0,13.847 10.91,22.949 34.94,22.949 26.94,0 48.07,-12.742 63.38,-30.223 l 4.73,3.274 -13.84,48.074 -8.74,0 c 0,-4.008 -1.84,-8.383 -5.47,-8.383 -8.01,4.375 -20.38,11.289 -41.53,11.289 -37.85,0 -67.33,-19.66 -67.33,-55.344 0,-27.316 16.38,-44.429 52.06,-52.437 l 32.05,-7.293 c 21.47,-4.738 29.13,-12.375 29.13,-25.859 0,-18.567 -14.92,-28.391001 -39.34,-28.391001 -34.24,0 -56.08,17.832001 -73.9,38.594001 l -4.76,-3.27 14.93,-55.722001 9.11,0 c 0,2.918 2.92,9.109 6.54,9.109 8.39,-4.004 22.59,-12.391 48.8,-12.391 44.06,0 75.04,21.864 75.04,59.004001 0,34.949 -19.32,49.153 -56.45,57.528 z m -266.56,73.566 -14.94,-48.074 4.72,-3.274 c 20.02,26.582 25.51,29.133 52.09,29.133 9.11,0 12.02,-0.73 12.02,-12.019 l 0,-122.008 c 0,-18.563001 -5.47,-21.465001 -20.39,-24.383001 l 0,-6.191 80.13,0 0,6.191 c -14.59,2.918 -20.41,5.82 -20.41,24.383001 l 0,122.008 c 0,11.289 2.91,12.019 12.01,12.019 26.59,0 33.52,-2.551 53.54,-29.133 l 4.73,3.274 -14.93,48.074 -148.57,0 z m -75.37,-6.191 c 10.92,-3.274 17.11,-6.196 17.11,-24.395 l 0,-76.477 -1.1,0 -93.96,107.063 -54.99,0 0,-6.191 c 10.93,-4.727 18.23,-8.375 18.23,-24.395 l 0,-125.656 c 0,-17.473001 -6.2,-21.465001 -18.23,-24.383001 l 0,-6.191 62.27,0 0,6.191 c -9.84,2.918 -19.3,6.91 -19.3,24.383001 l 0,108.535 1.08,0 124.18,-141.660001 6.57,0 0,158.781001 c 0,18.199 9.12,21.121 16.4,24.395 l 0,6.191 -58.26,0 0,-6.191 z m -194.47,-158.411 -39.32,0 c -12.4,0 -15.31,0.364 -15.31,12.375 l 0,52.43 47.7,0 c 18.59,0 21.49,-4.355 24.41,-15.293 l 7.28,0 0,52.453 -7.28,0 c -2.92,-10.929 -5.82,-15.656 -24.41,-15.656 l -47.7,0 0,44.059 c 0,9.101 2.91,12.019 15.31,12.019 0,0 30.58,0 33.5,0 21.46,0 32.75,-5.469 49.16,-22.949 l 4.72,3.281 -15.3,41.883 -145.65,0 0,-6.191 c 12.01,-3.274 18.22,-6.196 18.22,-24.395 l 0,-125.656 c 0,-18.563001 -6.21,-21.465001 -18.22,-24.383001 l 0,-6.191 152.57,0 17.48,43.699001 -4.72,3.281 c -15.31,-20.039 -31.33,-24.766 -52.44,-24.766 z m -245.45,43.332 -53.9,121.27 -66.99,0 0,-6.191 c 12.01,-3.274 18.19,-6.196 18.19,-24.395 l 0,-125.656 c 0,-16.375001 -6.91,-20.742001 -18.19,-24.383001 l 0,-6.191 59.34,0 0,6.191 c -12.37,3.27 -17.83,8.008 -17.83,24.383001 l 0,117.281 67.37,-150.777001 5.1,0 65.55,150.777001 0,-117.281 c 0,-18.563001 -8.02,-21.836001 -17.12,-24.383001 l 0,-6.191 76.47,0 0,6.191 c -12.02,2.918 -18.21,5.82 -18.21,24.383001 l 0,125.656 c 0,18.199 6.19,21.121 18.21,24.395 l 0,6.191 -65.91,0 -52.08,-121.27 z m -193.72,115.079 c 9.45,-2.192 18.56,-6.196 18.56,-24.395 l 0,-92.141 c 0,-30.566 -11.65,-44.062001 -46.25,-44.062001 -36.78,0 -49.89,13.496001 -49.89,44.062001 l 0,92.141 c 0,18.199 6.92,22.203 18.2,24.395 l 0,6.191 -76.45,0 0,-6.191 c 11.29,-1.821 18.56,-6.196 18.56,-24.395 l 0,-95.059 c 0,-49.882001 43.33,-64.453001 84.12,-64.453001 45.52,0 77.94,15.293 77.94,67.371001 l 0,92.141 c 0,18.199 5.47,21.844 16.76,24.395 l 0,6.191 -61.55,0 0,-6.191 z m -232.33,-81.575 -32.06,0 0,49.524 c 0,12.019 2.93,15.297 12.03,15.297 l 20.76,0 c 22.57,0 35.68,-8.735 35.68,-30.59 0,-22.942 -14.92,-34.231 -36.41,-34.231 z m 66.64,-43.711 c -11.3,18.223 -22.95,26.231 -36.41,29.512 l 0,1.094 c 32.04,5.098 50.24,21.851 50.24,49.164 0,36.414 -29.13,51.707 -76.11,51.707 l -95.75,0 0,-6.191 c 12.01,-3.274 18.2,-6.196 18.2,-24.395 l 0,-125.656 c 0,-18.563001 -6.19,-21.465001 -18.2,-24.383001 l 0,-6.191 78.28,0 0,6.191 c -11.29,2.918 -18.95,5.82 -18.95,24.383001 l 0,46.621 19.32,0 c 22.57,0 25.86,-9.094 40.42,-39.688 12.01,-25.125001 28.04,-40.789001 58.26,-40.789001 15.3,0 21.49,2.918 27.68,6.2 l 0,5.097 c -24.41,3.633 -32.43,23.653001 -46.98,47.324001 z m -324.46,131.477 -14.94,-48.074 4.73,-3.274 c 20.03,26.582 25.51,29.133 52.08,29.133 9.11,0 12.02,-0.73 12.02,-12.019 l 0,-122.008 c 0,-18.563001 -5.45,-21.465001 -20.39,-24.383001 l 0,-6.191 80.12,0 0,6.191 c -14.58,2.918 -20.41,5.82 -20.41,24.383001 l 0,122.008 c 0,11.289 2.92,12.019 12.02,12.019 26.59,0 33.51,-2.551 53.53,-29.133 l 4.75,3.274 -14.94,48.074 -148.57,0 z m -67.38,-73.566 -33.85,7.652 c -19.32,4.371 -25.51,9.824 -25.51,21.84 0,13.847 10.93,22.949 34.96,22.949 26.96,0 48.07,-12.742 63.38,-30.223 l 4.73,3.274 -13.83,48.074 -8.75,0 c 0,-4.008 -1.82,-8.383 -5.46,-8.383 -8.02,4.375 -20.38,11.289 -41.51,11.289 -37.87,0 -67.39,-19.66 -67.39,-55.344 0,-27.316 16.41,-44.429 52.09,-52.437 l 32.04,-7.293 c 21.5,-4.738 29.14,-12.375 29.14,-25.859 0,-18.567 -14.93,-28.391001 -39.33,-28.391001 -34.23,0 -56.08,17.832001 -73.94,38.594001 l -4.72,-3.27 14.93,-55.722001 9.11,0 c 0,2.918 2.9,9.109 6.54,9.109 8.38,-4.004 22.58,-12.391 48.81,-12.391 44.06,0 75.02,21.864 75.02,59.004001 0,34.949 -19.3,49.153 -56.46,57.528 z m -162.77,67.375 c 10.92,-3.274 17.12,-6.196 17.12,-24.395 l 0,-76.477 -1.09,0 -93.96,107.063 -54.99,0 0,-6.191 c 10.93,-4.727 18.21,-8.375 18.21,-24.395 l 0,-125.656 c 0,-17.473001 -6.2,-21.465001 -18.21,-24.383001 l 0,-6.191 62.29,0 0,6.191 c -9.85,2.918 -19.31,6.91 -19.31,24.383001 l 0,108.535 1.1,0 124.17,-141.660001 6.54,0 0,158.781001 c 0,18.199 9.11,21.121 16.4,24.395 l 0,6.191 -58.27,0 0,-6.191 z m -231.96,57.898 c 11.29,-3.281 20.38,-6.191 20.38,-24.395 l 0,-183.554 c 0,-18.563001 -9.09,-21.465001 -20.38,-24.383001 l 0,-6.191 84.49,0 0,6.191 c -11.29,2.918 -20.4,5.82 -20.4,24.383001 l 0,183.554 c 0,18.204 9.11,21.114 20.4,24.395 l 0,6.191 -84.49,0 0,-6.191"
             inkscape:connector-curvature="0" /><path
             id="TILogo"
             class="logo"
             style="fill:#cc0000;fill-opacity:1;fill-rule:nonzero;stroke:none"
             d="m 855.86487,706.64405 -65.61644,0 -12.55037,-57.32145 65.60431,0 12.5625,57.32145 z m -74.54637,-341.87071 56.92433,259.76728 -65.60431,0 -56.91373,-259.76728 65.59371,0 z m 220.876,183.32497 0,76.44231 -135.4183,0 -17.06458,-77.12235 48.71698,0 -15.6164,-70.87716 -48.72909,0 -16.88734,-76.82209 c -1.30276,-5.22238 -2.25407,-8.97087 -2.88273,-12.58637 -3.97643,-23.511 7.3742,-22.35931 43.83013,-22.35931 l -16.66314,-75.52643 -63.75319,0 c -60.26756,0 -109.29205,0.54568 -96.54626,56.31508 1.99352,8.71311 4.42028,17.14927 6.16536,25.47711 l 22.76943,105.50201 -46.83555,0 15.65124,70.87716 46.81889,0 17.08275,77.12235 -43.83619,0 0,116.23058 -162.13997,0 0,-236.49209 -193.97414,0 c 4.79292,-61.32358 64.76964,-70.24647 86.60442,-113.80929 15.04227,-30.01944 28.21373,-82.78896 72.19231,-83.27157 33.68076,-0.3743 33.68076,39.41809 77.01857,39.41809 43.30903,0 62.54587,-74.44466 101.04985,-135.76688 28.88329,-48.15862 76.83679,-80.44306 120.31093,-83.17422 35.66367,-2.23347 52.93124,8.72956 52.93124,8.72956 -9.61615,17.54002 -14.43938,35.04303 -14.43938,61.29616 0,39.44551 33.6944,78.79916 72.19232,105.07972 52.92972,35.09513 110.68874,48.2546 129.94374,52.5666 l 0,122.63482 c 0,0 -38.4919,18.65333 -38.4919,70.11621"
             inkscape:connector-curvature="0" /></g></g></g></g></svg>